<?xml version="1.0" standalone="no"?><!DOCTYPE svg PUBLIC "-//W3C//DTD SVG 1.1//EN" "http://www.w3.org/Graphics/SVG/1.1/DTD/svg11.dtd"><svg t="1740102142301" class="icon" viewBox="0 0 1024 1024" version="1.1" xmlns="http://www.w3.org/2000/svg" p-id="5257" xmlns:xlink="http://www.w3.org/1999/xlink" width="200" height="200"><path d="M366.272 272l-12.64-37.888 60.736-20.224 16 48-30.368 10.112H576v64h-39.264a656 656 0 0 1-18.112 54.336c-16.64 43.456-43.616 99.392-83.968 140.576l-1.6 1.6c28.544 18.72 61.152 35.84 89.632 49.376a1098.88 1098.88 0 0 0 63.648 27.808l0.864 0.32 0.256 0.096L576 640l-11.456 29.888-0.128-0.064-0.32-0.096-1.088-0.448a595.2 595.2 0 0 1-18.688-7.616 1165.696 1165.696 0 0 1-49.12-21.984c-33.792-16.096-75.84-38.144-111.648-63.488a868.704 868.704 0 0 1-75.52 52.608 1054.176 1054.176 0 0 1-68.096 39.008l-1.12 0.544-0.32 0.16-0.064 0.064H238.4L224 640l-14.4-28.576h0.064l0.192-0.128 0.864-0.448 3.52-1.824a991.264 991.264 0 0 0 59.84-34.496 835.008 835.008 0 0 0 60.48-41.408c-23.008-25.76-40-54.048-51.872-77.696a433.28 433.28 0 0 1-23.744-57.152 225.056 225.056 0 0 1-1.216-3.84l-0.32-1.088-0.128-0.352v-0.128l-0.032-0.032L288 384l30.752-8.8v0.032l0.192 0.608 0.864 2.72a369.6 369.6 0 0 0 20.032 48.096c10.72 21.28 25.152 44.736 43.52 65.024 1.92-1.856 3.744-3.712 5.568-5.568 31.232-31.84 54.4-78.144 69.92-118.72 4.352-11.328 8-21.984 11.04-31.392H224v-64h142.272zM672 432.48l120.64 274.432 36.48 79.776-58.24 26.624-28-61.312h-141.76l-28 61.312-58.24-26.624 36.48-79.776L672 432.48z m42.4 255.52L672 591.52 629.6 688h84.8z" fill="#4E5969" p-id="5258"></path></svg>