<?xml version="1.0" standalone="no"?><!DOCTYPE svg PUBLIC "-//W3C//DTD SVG 1.1//EN" "http://www.w3.org/Graphics/SVG/1.1/DTD/svg11.dtd"><svg t="1740641307394" class="icon" viewBox="0 0 1181 1024" version="1.1" xmlns="http://www.w3.org/2000/svg" p-id="8607" xmlns:xlink="http://www.w3.org/1999/xlink" width="230.6640625" height="200"><path d="M88.536615 15.202462h927.665231a66.953846 66.953846 0 0 1 0 133.828923H88.536615a66.953846 66.953846 0 1 1 0-133.828923z m0 390.459076h612.588308a66.953846 66.953846 0 0 1 0 133.828924H88.536615a66.953846 66.953846 0 0 1 0-133.828924z m0 392.822154h455.049847a66.953846 66.953846 0 1 1 0 133.828923H88.536615a66.953846 66.953846 0 1 1 0-133.828923z" fill="#606265" p-id="8608"></path><path d="M1071.812923 779.264h-135.010461v135.010462a30.877538 30.877538 0 1 1-61.912616 0V779.264H739.879385a30.877538 30.877538 0 1 1 0-61.912615h135.010461V582.340923a30.877538 30.877538 0 1 1 61.912616 0v135.089231h135.010461a30.877538 30.877538 0 1 1 0 61.755077" fill="#606265" p-id="8609"></path></svg>