<?xml version="1.0" standalone="no"?><!DOCTYPE svg PUBLIC "-//W3C//DTD SVG 1.1//EN" "http://www.w3.org/Graphics/SVG/1.1/DTD/svg11.dtd"><svg t="1740102515711" class="icon" viewBox="0 0 1024 1024" version="1.1" xmlns="http://www.w3.org/2000/svg" p-id="15208" xmlns:xlink="http://www.w3.org/1999/xlink" width="200" height="200"><path d="M191.808 533.312h261.12c3.84 0 7.68 1.92 10.24 5.12 1.92 3.2 3.2 7.04 1.92 10.88l-89.6 339.84c-1.28 5.76 1.28 11.52 6.4 14.08 5.12 2.56 11.52 1.28 15.36-2.56l457.6-495.36a12.864 12.864 0 0 0-9.6-21.12h-264.32c-5.12 0-9.6-2.56-12.16-7.04a14.016 14.016 0 0 1 1.92-14.08l202.24-257.28c2.56-3.84 3.2-8.96 1.28-13.44a12.992 12.992 0 0 0-10.88-7.04h-350.08c-5.12 0-9.6 2.56-11.52 7.04l-221.44 422.4c-1.92 3.84-1.92 8.96 0.64 12.8 2.56 3.2 6.4 5.76 10.88 5.76z" p-id="15209"></path></svg>