<?xml version="1.0" standalone="no"?><!DOCTYPE svg PUBLIC "-//W3C//DTD SVG 1.1//EN" "http://www.w3.org/Graphics/SVG/1.1/DTD/svg11.dtd"><svg t="1740836788064" class="icon" viewBox="0 0 1024 1024" version="1.1" xmlns="http://www.w3.org/2000/svg" p-id="6523" xmlns:xlink="http://www.w3.org/1999/xlink" width="200" height="200"><path d="M222.8736 434.4832a299.264 299.264 0 0 0 328.192 374.4768 42.752 42.752 0 0 1 11.2128 84.7872 384.8704 384.8704 0 0 1-422.0416-481.28l-51.2-13.6704a11.4176 11.4176 0 0 1-8.1408-13.9264 11.8784 11.8784 0 0 1 2.5088-4.7616L225.28 220.16a11.4176 11.4176 0 0 1 16.128-1.024 11.6224 11.6224 0 0 1 3.7888 6.144l42.8032 209.4592a11.4176 11.4176 0 0 1-8.9088 13.4144 11.008 11.008 0 0 1-5.12 0l-51.2-13.6704z m578.2528 155.0336A299.264 299.264 0 0 0 472.9344 215.04 42.752 42.752 0 0 1 460.8 130.5088a4.2496 4.2496 0 0 1 1.1264 0 384.8704 384.8704 0 0 1 422.0416 481.28l51.2 13.6704a11.4176 11.4176 0 0 1 8.1408 13.9264 11.8784 11.8784 0 0 1-2.5088 4.7616L798.72 803.84a11.4176 11.4176 0 0 1-16.128 1.024 11.6224 11.6224 0 0 1-3.6352-6.2464l-42.8032-209.4592a11.4176 11.4176 0 0 1 8.9088-13.4144 11.008 11.008 0 0 1 5.12 0l51.2 13.6704z" p-id="6524"></path></svg>