<?xml version="1.0" standalone="no"?><!DOCTYPE svg PUBLIC "-//W3C//DTD SVG 1.1//EN" "http://www.w3.org/Graphics/SVG/1.1/DTD/svg11.dtd"><svg t="1740836821065" class="icon" viewBox="0 0 1024 1024" version="1.1" xmlns="http://www.w3.org/2000/svg" p-id="7496" xmlns:xlink="http://www.w3.org/1999/xlink" width="200" height="200"><path d="M246.383304 401.764174L173.056 327.145739C125.996522 391.168 94.608696 460.710957 89.488696 535.329391h104.492521c5.253565-48.083478 26.223304-90.735304 52.402087-133.565217m-52.402087 240.328348H89.488696c10.50713 74.885565 36.507826 144.161391 83.567304 208.317217l73.327304-74.796522c-26.178783-42.829913-47.148522-85.481739-52.402087-133.565217m52.402087 283.158261a429.145043 429.145043 0 0 0 203.909566 85.348174v-106.852174c-47.014957-5.342609-88.954435-26.579478-130.715827-53.292522l-73.193739 74.796522z m308.268522-758.383304V1.335652L319.443478 241.619478l235.208348 240.283826V273.67513c146.387478 26.713043 261.342609 154.935652 261.342609 315.080348a319.087304 319.087304 0 0 1-261.342609 314.946783v106.852174c203.909565-26.713043 366.013217-208.361739 366.013217-421.798957 0-213.704348-162.148174-395.219478-366.013217-421.932521" fill="#106E4B" p-id="7497"></path></svg>