<?xml version="1.0" standalone="no"?><!DOCTYPE svg PUBLIC "-//W3C//DTD SVG 1.1//EN" "http://www.w3.org/Graphics/SVG/1.1/DTD/svg11.dtd"><svg t="1740288127013" class="icon" viewBox="0 0 1024 1024" version="1.1" xmlns="http://www.w3.org/2000/svg" p-id="15304" xmlns:xlink="http://www.w3.org/1999/xlink" width="200" height="200"><path d="M731.52 848.768a39.68 39.68 0 1 0-3.328-79.168 39.68 39.68 0 0 0 3.328 79.168z m-113.664 0H135.616a39.68 39.68 0 0 1 0-79.296h482.24a118.848 118.848 0 0 1 224.128 0h46.464-0.064a39.68 39.68 0 0 1 0 79.296h-46.4a118.848 118.848 0 0 1-224.128 0z m6.208-594.24a118.848 118.848 0 0 1-224.064 0H135.616a39.68 39.68 0 0 1 0-79.296H400a118.848 118.848 0 0 1 224.064 0h264.384-0.064a39.68 39.68 0 0 1 0 79.296h-264.32zM295.872 551.616a39.68 39.68 0 1 0-3.392-79.168 39.68 39.68 0 0 0 3.392 79.168zM407.04 472.32h481.344-0.064a39.616 39.616 0 0 1 0 79.232H406.144a118.848 118.848 0 0 1-224.128 0H135.68a39.616 39.616 0 0 1 0-79.232h45.44a118.848 118.848 0 0 1 226.048 0z m65.344-257.536a39.616 39.616 0 1 0 79.168 0 39.616 39.616 0 0 0-79.168 0z" fill="#333333" p-id="15305"></path></svg>